<svg width="41" height="41" viewBox="0 0 41 41" fill="none" xmlns="http://www.w3.org/2000/svg">
<path d="M12.8041 26.057C12.5864 26.2745 12.4137 26.5327 12.2959 26.817C12.178 27.1012 12.1173 27.4059 12.1172 27.7137C12.1171 28.0214 12.1776 28.3261 12.2952 28.6105C12.4129 28.8948 12.5854 29.1532 12.8029 29.3708C13.0204 29.5885 13.2787 29.7612 13.563 29.8791C13.8472 29.9969 14.1519 30.0577 14.4596 30.0578C14.7674 30.0579 15.0721 29.9974 15.3564 29.8797C15.6408 29.762 15.8991 29.5895 16.1168 29.372L29.37 16.1188C29.5877 15.9011 29.7604 15.6427 29.8782 15.3583C29.996 15.0739 30.0566 14.7691 30.0566 14.4613C30.0566 14.1535 29.996 13.8486 29.8782 13.5642C29.7604 13.2798 29.5877 13.0214 29.37 12.8038C29.1523 12.5861 28.8939 12.4134 28.6095 12.2956C28.3251 12.1778 28.0203 12.1172 27.7125 12.1172C27.4047 12.1172 27.0998 12.1778 26.8154 12.2956C26.531 12.4134 26.2726 12.5861 26.055 12.8038L12.8041 26.057Z" fill="#5D1F1A"/>
<path fill-rule="evenodd" clip-rule="evenodd" d="M7.56497 34.435C9.32928 36.1993 11.4238 37.5989 13.729 38.5537C16.0342 39.5085 18.5049 40 21 40C23.4951 40 25.9658 39.5086 28.271 38.5537C30.5762 37.5989 32.6707 36.1993 34.435 34.435C36.1993 32.6707 37.5989 30.5762 38.5537 28.271C39.5086 25.9658 40 23.4951 40 21C40 18.5049 39.5085 16.0342 38.5537 13.729C37.5989 11.4238 36.1993 9.32928 34.435 7.56497C30.8718 4.00178 26.0391 2 21 2C15.9609 2 11.1282 4.00178 7.56497 7.56497C4.00178 11.1282 2 15.9609 2 21C2 26.0391 4.00178 30.8718 7.56497 34.435ZM31.0769 31.0769C28.4046 33.7494 24.7802 35.251 21.0008 35.2512C17.2215 35.2514 13.5969 33.7503 10.9243 31.0781C8.25177 28.4058 6.75022 24.7814 6.75 21.002C6.74978 17.2227 8.2509 13.5981 10.9231 10.9255C13.5954 8.25296 17.2198 6.75141 20.9992 6.75119C22.8705 6.75108 24.7235 7.11955 26.4525 7.83558C28.1814 8.55161 29.7524 9.60117 31.0757 10.9243C32.399 12.2475 33.4487 13.8183 34.165 15.5472C34.8812 17.276 35.2499 19.129 35.25 21.0003C35.2501 22.8717 34.8816 24.7247 34.1656 26.4537C33.4496 28.1826 32.4 29.7536 31.0769 31.0769Z" fill="#5D1F1A"/>
</svg>
